<mxfile host="app.diagrams.net" modified="2024-03-06T05:10:19.979Z" agent="Mozilla/5.0 (Windows NT 10.0; Win64; x64) AppleWebKit/537.36 (KHTML, like Gecko) Chrome/122.0.0.0 Safari/537.36" version="24.0.2" etag="oGIVYtzYvD7oKdYo1HO8" type="github">
  <diagram name="Trang-1" id="Ta6w-r2t5OSay9u4dCak">
    <mxGraphModel>
      <root>
        <mxCell id="0" />
        <mxCell id="1" parent="0" />
      </root>
    </mxGraphModel>
  </diagram>
</mxfile>
